<svg xmlns="http://www.w3.org/2000/svg" width="32" height="32" viewBox="0 0 24 24" fill="none" stroke="#2563eb" stroke-width="2" stroke-linecap="round" stroke-linejoin="round">
  <path d="M19 5c-1.5 0-2.8.8-3.5 2H15c-2.8 0-5 2.2-5 5v1c0 1.7.8 3.2 2 4v2a1 1 0 0 0 1 1h2a1 1 0 0 0 1-1v-1h1v1a1 1 0 0 0 1 1h2a1 1 0 0 0 1-1v-2c1.2-.8 2-2.3 2-4v-1c0-1-.3-2-.8-2.8.5-.7.8-1.5.8-2.2 0-2.2-2-3-4-3z"/>
  <circle cx="12" cy="12" r="1" fill="#2563eb"/>
  <path d="M2 10h2v4H2z"/>
  <path d="M7 8h1v5H7z"/>
</svg>
